<?xml version="1.0" encoding="UTF-8"?>
<svg version="1.1" xmlns="http://www.w3.org/2000/svg" width="718" height="638">
<path d="M0 0 C236.94 0 473.88 0 718 0 C718 210.54 718 421.08 718 638 C481.06 638 244.12 638 0 638 C0 427.46 0 216.92 0 0 Z " fill="#010C22" transform="translate(0,0)"/>
<path d="M0 0 C24.75 0 49.5 0 75 0 C78.3 8.25 81.6 16.5 85 25 C86.98 29.455 86.98 29.455 89 34 C89.82109883 35.93387156 90.63476397 37.8709343 91.4375 39.8125 C92.66391731 42.77820004 93.89043602 45.74286004 95.1484375 48.6953125 C98.31127953 56.14603434 101.20124142 63.691318 104.05786133 71.26342773 C106.30145588 77.20505797 108.62316807 83.11047233 111 89 C112.02154711 91.54138053 113.04197372 94.0832092 114.0625 96.625 C114.32144043 97.26961182 114.58038086 97.91422363 114.84716797 98.57836914 C116.15611209 101.84825193 117.42923105 105.12463191 118.625 108.4375 C119.64087283 111.06953415 120.68327847 113.34735969 122 115.8125 C123.63843534 118.96571519 124.58734913 121.98886539 125.4375 125.4375 C126.60463845 130.0675767 128.30338442 133.78457864 130.81640625 137.83203125 C132.26164894 140.47925796 133.10488945 143.12007911 134 146 C136.706369 154.56036281 139.61917086 162.61062083 143.515625 170.71484375 C145.63673588 175.40919705 147.27747322 180.22317056 148.921875 185.1015625 C149.92360306 188.13437662 149.92360306 188.13437662 152 191 C152.50724305 192.51430776 152.96494382 194.04563577 153.38671875 195.5859375 C154.87918772 200.74922514 156.76500101 205.6601495 158.8125 210.625 C161.68047646 217.66614377 164.45104813 224.72700064 167.0090332 231.88720703 C168.34091293 235.53804982 169.97285403 238.69547438 172 242 C172.84375 244.140625 172.84375 244.140625 173.5 246.25 C173.75136719 247.03503906 174.00273437 247.82007813 174.26171875 248.62890625 C174.72453392 250.11530207 175.18572679 251.60220505 175.64453125 253.08984375 C177.54754117 259.06596261 180.00642521 264.74320748 182.515625 270.48828125 C184.19965569 274.47234332 185.66046126 278.50063633 187.04296875 282.59765625 C187.928503 285.04168548 187.928503 285.04168548 189.41015625 287.19921875 C191.67145555 291.18288361 192.87700291 295.39386539 194.25 299.75 C197.12710315 308.62304425 200.42584533 317.19471593 204.06884766 325.77539062 C205.80882753 329.93236404 207.4613797 334.12452351 209.125 338.3125 C211.69476502 344.77752666 214.31742662 351.20858533 217.08984375 357.58984375 C218 360 218 360 219 365 C194.25 365 169.5 365 144 365 C132 341 132 341 132 334 C131.34 334 130.68 334 130 334 C129.18309823 331.77236012 128.37138128 329.5430514 127.5625 327.3125 C127.33240234 326.68666016 127.10230469 326.06082031 126.86523438 325.41601562 C125.61946333 321.96757692 124.60195551 318.6186521 124 315 C123.34 315 122.68 315 122 315 C121.68546875 314.09378906 121.3709375 313.18757813 121.046875 312.25390625 C120.61890625 311.03574219 120.1909375 309.81757813 119.75 308.5625 C119.12351562 306.77005859 119.12351562 306.77005859 118.484375 304.94140625 C116.83310868 300.55685964 114.90283259 296.28137333 113 292 C63.17 292 13.34 292 -38 292 C-50.57540711 322.98340905 -50.57540711 322.98340905 -62.77416992 354.10864258 C-64.34593227 357.8159482 -66.19919175 361.39838349 -68 365 C-93.08 365 -118.16 365 -144 365 C-142.65717992 358.95730966 -141.32998643 353.75016886 -139.0234375 348.1328125 C-138.59383224 347.06332367 -138.59383224 347.06332367 -138.1555481 345.972229 C-137.23544484 343.68702675 -136.30541277 341.40602161 -135.375 339.125 C-134.73582384 337.54268408 -134.09715449 335.96016335 -133.45898438 334.37744141 C-129.91727583 325.61342626 -126.29415798 316.88763307 -122.56713867 308.20068359 C-120.12441432 302.44813799 -117.99588852 296.60663962 -115.98828125 290.68896484 C-114.16273468 285.31568329 -112.12738133 280.16081422 -109.5 275.125 C-107.99398892 271.98747691 -106.93578221 268.90205205 -105.87109375 265.59765625 C-102.13350259 254.45192475 -97.46009342 243.58114007 -93.06469727 232.68041992 C-90.66348055 226.70750303 -88.34359935 220.70720761 -86.0625 214.6875 C-85.35947501 212.83850364 -84.65635027 210.9895452 -83.953125 209.140625 C-83.0444702 206.74951995 -82.13597549 204.35835567 -81.22851562 201.96679688 C-79.12385067 196.4247135 -76.9798914 190.91009954 -74.671875 185.44921875 C-71.96439741 178.97255662 -69.43682921 172.43429056 -66.9375 165.875 C-64.01641985 158.22561707 -61.06300903 150.59372727 -58 143 C-57.33290579 141.33350442 -56.66619396 139.66685567 -56 138 C-55.66871094 137.17242187 -55.33742188 136.34484375 -54.99609375 135.4921875 C-54.34064552 133.85228174 -53.68695087 132.21167384 -53.03515625 130.5703125 C-50.04464765 123.05200574 -46.94649142 115.57924585 -43.78125 108.1328125 C-40.86616657 101.237519 -38.20155159 94.27695887 -35.625 87.25 C-34.37795158 83.92035238 -33.02804242 80.64179012 -31.65234375 77.36328125 C-28.8480613 70.67937422 -26.19890153 63.93905689 -23.5625 57.1875 C-22.59316263 54.71195898 -21.62271034 52.23685672 -20.65234375 49.76171875 C-20.19327637 48.59044434 -19.73420898 47.41916992 -19.26123047 46.21240234 C-13.15592532 30.66195613 -6.69848136 15.31081453 0 0 Z " fill="#00AAFD" transform="translate(328,117)"/>
<path d="M0 0 C17 0 17 0 21 1 C23.0619771 1.07786487 25.12465549 1.1376499 27.1875 1.1875 C53.72475723 2.47407282 78.33591672 12.1972534 97 31 C105.300214 40.72657618 109.9972757 52.02367057 114 64 C114.33128906 64.98097656 114.66257812 65.96195312 115.00390625 66.97265625 C119.41330256 81.43632819 118.14683345 97.41983487 118.16866493 112.36751366 C118.17590801 116.29927529 118.191283 120.23095469 118.21000671 124.16267395 C118.21634076 125.51800438 118.22266642 126.87333485 118.22898388 128.22866535 C118.23214969 128.90650755 118.2353155 129.58434974 118.23857725 130.28273261 C118.28040264 139.41170008 118.31365637 148.5406205 118.32592773 157.66967773 C118.33523822 164.52648301 118.36538982 171.38296677 118.40724754 178.23964882 C118.41951687 180.84019931 118.42468629 183.44079383 118.42244911 186.0413723 C118.42008674 189.68050718 118.44233056 193.31874978 118.4699707 196.95776367 C118.46336929 198.01830963 118.45676788 199.07885559 118.44996643 200.17153931 C118.59666516 211.9918666 122.52885924 220.95325912 130.44921875 229.578125 C140.28334648 238.99114399 152.1961836 241.89615476 165.23828125 243.4921875 C169 244 169 244 170 245 C170.09319449 246.5348297 170.117458 248.07392082 170.11352539 249.61157227 C170.11344986 250.59251358 170.11337433 251.5734549 170.11329651 252.5841217 C170.10813522 253.6507756 170.10297394 254.7174295 170.09765625 255.81640625 C170.09553383 257.44569313 170.09553383 257.44569313 170.09336853 259.1078949 C170.08775048 262.59279075 170.07519492 266.07762342 170.0625 269.5625 C170.05748733 271.91861887 170.05292402 274.27473874 170.04882812 276.63085938 C170.03777519 282.42059464 170.02101951 288.21029281 170 294 C168.97156982 294.05841064 167.94313965 294.11682129 166.88354492 294.17700195 C165.5200053 294.25969403 164.15648066 294.34263353 162.79296875 294.42578125 C161.7787384 294.48239929 161.7787384 294.48239929 160.74401855 294.54016113 C155.34597956 294.87702506 150.91545507 295.81155391 146 298 C145.02160156 298.4125 144.04320312 298.825 143.03515625 299.25 C132.19096729 304.18283256 126.42683922 311.00751161 122 322 C119.6505329 328.47017469 119.70711507 334.60982612 119.71289062 341.44604492 C119.70605759 342.6860022 119.69922455 343.92595947 119.69218445 345.20349121 C119.67861864 347.8902795 119.66856074 350.57680836 119.66447449 353.2636013 C119.65772354 357.52275778 119.63592341 361.7817583 119.61193848 366.04084778 C119.56307792 375.08969512 119.53072136 384.13857566 119.5 393.1875 C119.46683758 402.94184486 119.43067942 412.69612824 119.37586927 422.45037919 C119.35269913 426.6728314 119.3388246 430.89517536 119.33237457 435.11768472 C119.32497028 438.38082159 119.30496515 441.64388857 119.28710938 444.90698242 C119.28809128 446.05908707 119.28907318 447.21119171 119.29008484 448.39820862 C119.21123695 458.80373082 118.07679826 468.76194667 113.9375 478.375 C113.63730957 479.08760986 113.33711914 479.80021973 113.02783203 480.53442383 C104.54484395 499.91087832 89.6452196 516.7541723 69.77880859 524.91210938 C63.35851651 527.31822504 56.84425991 529.69597341 50.0234375 530.59765625 C47.12581411 530.6716353 47.12581411 530.6716353 46 532 C36.61842456 534.00824349 27.18443676 534.18681952 17.625 534.1875 C16.5009375 534.1882251 15.376875 534.1889502 14.21875 534.18969727 C6.13445291 534.13445291 6.13445291 534.13445291 5 533 C4.90186013 531.56259647 4.8720172 530.12043673 4.87060547 528.6796875 C4.86745331 527.76203613 4.86430115 526.84438477 4.86105347 525.89892578 C4.8630777 524.90103027 4.86510193 523.90313477 4.8671875 522.875 C4.86623077 521.85776855 4.86527405 520.84053711 4.86428833 519.79248047 C4.86360639 517.63704364 4.86546165 515.48160478 4.86962891 513.32617188 C4.87497695 510.01427629 4.86968437 506.70251633 4.86328125 503.390625 C4.86394203 501.30208303 4.86522319 499.21354115 4.8671875 497.125 C4.86415115 495.62815674 4.86415115 495.62815674 4.86105347 494.10107422 C4.86420563 493.18342285 4.86735779 492.26577148 4.87060547 491.3203125 C4.87140106 490.50836426 4.87219666 489.69641602 4.87301636 488.85986328 C5 487 5 487 6 486 C7.5193332 485.89065619 9.04327367 485.84413366 10.56640625 485.82421875 C35.29774696 485.41979599 35.29774696 485.41979599 56 473 C64.81136192 462.4704225 67.4612201 451.85782051 67.40063477 438.35668945 C67.40761383 437.24936966 67.4145929 436.14204987 67.42178345 435.00117493 C67.44163681 431.37179775 67.44125963 427.7427077 67.44140625 424.11328125 C67.45319514 421.56657661 67.46656303 419.01987884 67.48143005 416.47319031 C67.5212015 409.10151122 67.54094346 401.72990222 67.55760193 394.35814667 C67.58155823 384.35295901 67.62152585 374.34790057 67.67487907 364.34282494 C67.69104329 360.63405989 67.69497106 356.92542473 67.69789124 353.21662903 C67.77858135 326.90261368 70.07121002 301.7858027 88 281 C88.79083984 280.02933594 88.79083984 280.02933594 89.59765625 279.0390625 C92.47353885 275.55269842 95.44997702 272.8191359 99 270 C99 269.34 99 268.68 99 268 C97.51322339 266.53587878 97.51322339 266.53587878 95.5625 265 C78.35504635 250.25509714 68.0246013 229.48644692 66.13514709 206.91320801 C64.29787021 181.20939497 64.61356996 155.42085034 64.54370117 129.66455078 C64.52776311 124.11434552 64.49751989 118.56435854 64.45893669 113.01426697 C64.44738643 110.9253115 64.44135723 108.83631711 64.44125557 106.74732971 C64.44020034 90.8778688 64.03164694 75.68845913 53.25390625 62.93359375 C39.73439841 49.92001343 17.06295247 49.43756464 0 47 C0 31.49 0 15.98 0 0 Z " fill="#00B6FC" transform="translate(503,48)"/>
<path d="M0 0 C1.06118042 0.00338379 2.12236084 0.00676758 3.21569824 0.01025391 C5.81180138 0.01902206 8.40783646 0.03131211 11.00390625 0.046875 C11.0291757 6.7220784 11.04673893 13.39726957 11.05883789 20.07250977 C11.0638795 22.34530091 11.07071262 24.6180888 11.0793457 26.89086914 C11.09141886 30.14991051 11.09713612 33.40890917 11.1015625 36.66796875 C11.10672379 37.69087509 11.11188507 38.71378143 11.11720276 39.76768494 C11.11727829 40.70858475 11.11735382 41.64948456 11.11743164 42.61889648 C11.11965225 43.45162582 11.12187286 44.28435516 11.12416077 45.14231873 C11.00390625 47.046875 11.00390625 47.046875 10.00390625 48.046875 C8.40520812 48.25064902 6.79875579 48.3943006 5.19140625 48.51171875 C4.19753906 48.58970703 3.20367187 48.66769531 2.1796875 48.74804688 C0.09386639 48.9032648 -1.99206879 49.05695873 -4.078125 49.20898438 C-16.3112886 50.17476045 -28.90962185 52.14021661 -38.1796875 60.8671875 C-45.35988069 69.48341932 -50.10967691 82.52558603 -50.12739563 93.78329468 C-50.13140381 94.70772873 -50.13541199 95.63216278 -50.13954163 96.58460999 C-50.13901291 97.58713303 -50.13848419 98.58965607 -50.13793945 99.62255859 C-50.14315109 101.2214669 -50.14315109 101.2214669 -50.14846802 102.85267639 C-50.1558168 105.16833348 -50.16116686 107.48399758 -50.16475868 109.79966354 C-50.17195477 113.48617907 -50.18765076 117.17256383 -50.20610046 120.85903931 C-50.25838012 131.34187887 -50.3063964 141.82465045 -50.32202148 152.30761719 C-50.33221362 158.72617095 -50.36182874 165.14439994 -50.40334129 171.56282425 C-50.41550966 173.98878118 -50.42079902 176.41478432 -50.41854286 178.84077072 C-50.39706623 209.50896967 -53.71219326 237.22040998 -75.99609375 260.046875 C-76.74761719 260.83707031 -77.49914062 261.62726563 -78.2734375 262.44140625 C-82.25244607 266.54993047 -82.25244607 266.54993047 -83.99609375 268.046875 C-84.65609375 268.046875 -85.31609375 268.046875 -85.99609375 268.046875 C-84.61923137 271.24340977 -83.13365478 273.00091684 -80.43359375 275.171875 C-64.60186695 288.64751905 -54.18449885 307.98552036 -52.43359375 328.921875 C-52.22565394 331.35774131 -52.09495141 332.84915969 -50.99609375 335.046875 C-50.89846592 336.54027485 -50.86270948 338.03793504 -50.85806274 339.53451538 C-50.85260941 340.47913635 -50.84715607 341.42375732 -50.84153748 342.39700317 C-50.84049515 343.43694427 -50.83945282 344.47688538 -50.83837891 345.54833984 C-50.83329819 346.64126343 -50.82821747 347.73418701 -50.82298279 348.86022949 C-50.81225924 351.24144049 -50.8036469 353.62266169 -50.79686356 356.00388718 C-50.78508845 359.77955145 -50.76563562 363.55510062 -50.7437439 367.33071899 C-50.68210554 378.06891268 -50.62797729 388.8070894 -50.59472656 399.54541016 C-50.57431186 406.10953106 -50.53833583 412.67347369 -50.49396896 419.23747635 C-50.47985717 421.73392933 -50.47109749 424.2304188 -50.46791458 426.72690964 C-50.46297125 430.23531142 -50.43972181 433.74317383 -50.41259766 437.25146484 C-50.41560379 438.27116364 -50.41860992 439.29086243 -50.42170715 440.34146118 C-50.25916219 454.59613094 -46.12214929 466.2193964 -35.99609375 476.421875 C-22.54011416 487.30736015 -5.33823963 485.80296237 11.00390625 486.046875 C11.00390625 501.886875 11.00390625 517.726875 11.00390625 534.046875 C-14.6725022 534.046875 -14.6725022 534.046875 -25.37109375 532.359375 C-26.55445313 532.18003418 -27.7378125 532.00069336 -28.95703125 531.81591797 C-46.31451437 529.03957712 -62.578619 523.85425278 -75.99609375 512.046875 C-76.74632812 511.40234375 -77.4965625 510.7578125 -78.26953125 510.09375 C-84.86955916 504.01181302 -89.01623942 496.96586356 -92.99609375 489.046875 C-93.55425781 487.95503906 -94.11242187 486.86320312 -94.6875 485.73828125 C-103.213237 467.59705139 -103.54575017 448.59401758 -103.31640625 428.90234375 C-103.30382365 426.43338474 -103.29335749 423.96441414 -103.28488159 421.49543762 C-103.25852665 415.05189783 -103.20978493 408.60875183 -103.1541748 402.16540527 C-103.06727994 391.83966632 -103.0081238 381.51382366 -102.96209335 371.18782997 C-102.94188687 367.61238678 -102.907779 364.03727748 -102.87210083 360.46195984 C-102.23466094 333.02185405 -102.23466094 333.02185405 -113.99609375 309.046875 C-121.8333715 302.47120782 -129.96959136 298.83507468 -139.80859375 296.421875 C-141.52418914 295.99519843 -143.23907772 295.56566622 -144.953125 295.1328125 C-145.7056958 294.9476709 -146.4582666 294.7625293 -147.23364258 294.57177734 C-148.99609375 294.046875 -148.99609375 294.046875 -149.99609375 293.046875 C-150.0890519 291.60397713 -150.11355888 290.15657715 -150.10961914 288.71069336 C-150.10954361 287.7898143 -150.10946808 286.86893524 -150.10939026 285.92015076 C-150.10422897 284.91911819 -150.09906769 283.91808563 -150.09375 282.88671875 C-150.09233505 281.86711563 -150.0909201 280.84751251 -150.08946228 279.79701233 C-150.08384472 276.52610393 -150.07128925 273.25526287 -150.05859375 269.984375 C-150.05358101 267.77278744 -150.04901771 265.56119882 -150.04492188 263.34960938 C-150.03386959 257.91534143 -150.01711438 252.48111303 -149.99609375 247.046875 C-149.45031174 246.910466 -148.90452972 246.77405701 -148.34220886 246.6335144 C-145.84351908 246.00481384 -143.34758093 245.36578256 -140.8515625 244.7265625 C-139.99300659 244.51217529 -139.13445068 244.29778809 -138.24987793 244.0769043 C-131.72592491 242.39461725 -126.38367722 240.16919266 -120.99609375 236.046875 C-119.94421875 235.29664063 -119.94421875 235.29664063 -118.87109375 234.53125 C-110.84163386 228.26583811 -105.68752081 219.05144148 -103.99609375 209.046875 C-103.74409693 205.0828531 -103.78343454 201.13547531 -103.83251953 197.16503906 C-103.84171921 195.41194176 -103.84171921 195.41194176 -103.85110474 193.62342834 C-103.8653725 191.09333787 -103.88413021 188.56326956 -103.90689468 186.03324127 C-103.94185128 182.01129658 -103.96276875 177.98951981 -103.97872925 173.96746826 C-104.02677014 162.53398402 -104.09808575 151.10070993 -104.18798828 139.66748047 C-104.23755995 133.34312635 -104.27199841 127.01885662 -104.29110706 120.6943357 C-104.30190485 117.36126902 -104.32269811 114.02900083 -104.35788345 110.69605255 C-104.69092454 78.84115255 -99.76662453 49.57396007 -77.4453125 25.43359375 C-57.35988052 5.86070868 -27.10140544 -0.16527185 0 0 Z " fill="#00A0FC" transform="translate(204.99609375,47.953125)"/>
<path d="M0 0 C0.66 0 1.32 0 2 0 C5.62380197 8.66281654 9.19066946 17.33346947 12.44995117 26.14160156 C14.13226834 30.68781822 15.84371789 35.22186648 17.57421875 39.75 C25.95569699 61.69610554 25.95569699 61.69610554 29.5625 72.3125 C32.37236676 80.55009555 35.67811138 88.53070461 39.07592773 96.54101562 C42.45513383 104.56187497 45.59145238 112.65572428 48.625 120.8125 C49.06303955 121.98176025 49.5010791 123.15102051 49.95239258 124.35571289 C50.35224365 125.44102295 50.75209473 126.52633301 51.1640625 127.64453125 C51.51936035 128.60721924 51.8746582 129.56990723 52.24072266 130.56176758 C53 133 53 133 53 136 C19.01 136 -14.98 136 -50 136 C-49.27965256 129.51687304 -48.526127 124.82625685 -46.1875 119 C-45.93935547 118.35289062 -45.69121094 117.70578125 -45.43554688 117.0390625 C-44.07199697 113.52783475 -42.59324483 110.09165823 -41.0234375 106.66796875 C-38.77870394 101.66787167 -37.10163974 96.52929762 -35.4375 91.3125 C-33.62148199 85.62284711 -31.72669848 80.32777671 -29 75 C-28.12662203 72.55560679 -27.29481391 70.09605606 -26.5 67.625 C-24.78512746 62.36461577 -23.00625393 57.15616951 -21 52 C-20.61972656 51.00484375 -20.23945313 50.0096875 -19.84765625 48.984375 C-17.96315905 44.05833368 -16.0600846 39.14239581 -14.08984375 34.25 C-12.68652855 30.75110699 -11.32445482 27.24043237 -10 23.7109375 C-9.67 22.83179688 -9.34 21.95265625 -9 21.046875 C-8.33076793 19.25877056 -7.6641195 17.4696971 -7 15.6796875 C-4.96118528 10.26408591 -2.67883154 5.13044077 0 0 Z " fill="#020F23" transform="translate(365,210)"/>
<path d="M0 0 C1.6689062 0.00138269 1.6689062 0.00138269 3.37152767 0.00279331 C4.6434396 0.00141865 5.91535152 0.00004398 7.22580624 -0.00137234 C8.64839863 0.00216728 10.07099079 0.00580209 11.49358273 0.00952244 C12.98139602 0.0098043 14.46920945 0.00964659 15.95702267 0.00907993 C20.00849921 0.00879193 24.05994641 0.01468916 28.1114161 0.02165389 C32.34084918 0.02788691 36.57028285 0.02849119 40.79971981 0.0296793 C48.81432643 0.03279277 56.82891947 0.04100637 64.8435201 0.05102879 C73.96549605 0.06218944 83.08747263 0.06770025 92.2094537 0.07272422 C110.97921991 0.08318897 129.74897347 0.10078871 148.51872921 0.12304783 C148.51872921 0.45304783 148.51872921 0.78304783 148.51872921 1.12304783 C99.01872921 1.12304783 49.51872921 1.12304783 -1.48127079 1.12304783 C-2.14127079 3.43304783 -2.80127079 5.74304783 -3.48127079 8.12304783 C-5.10627079 10.06054783 -5.10627079 10.06054783 -6.48127079 11.12304783 C-6.00601199 9.47608179 -5.52595188 7.83050055 -5.04377079 6.18554783 C-4.77693485 5.26902439 -4.51009892 4.35250095 -4.23517704 3.40820408 C-3.16250166 0.15683051 -3.16250166 0.15683051 0 0 Z " fill="#012D50" transform="translate(292.4812707901001,407.8769521713257)"/>
<path d="M0 0 C1.16824417 3.5047325 0.82359937 4.0969617 -0.546875 7.38671875 C-1.0728125 8.6715918 -1.0728125 8.6715918 -1.609375 9.98242188 C-1.98578125 10.87509766 -2.3621875 11.76777344 -2.75 12.6875 C-3.47472992 14.44108757 -4.1986979 16.19499024 -4.921875 17.94921875 C-5.27677002 18.80499512 -5.63166504 19.66077148 -5.99731445 20.54248047 C-7.40836078 24.00086673 -8.7106186 27.49486345 -10 31 C-10.46019531 32.2271875 -10.92039062 33.454375 -11.39453125 34.71875 C-11.62487061 35.33339111 -11.85520996 35.94803223 -12.0925293 36.58129883 C-12.58902714 37.90445126 -13.08665432 39.22718027 -13.58520508 40.54956055 C-14.95476181 44.18703952 -16.30361413 47.83017844 -17.6171875 51.48828125 C-17.88039795 52.21273437 -18.1436084 52.9371875 -18.41479492 53.68359375 C-18.91912207 55.07308275 -19.41698956 56.46493827 -19.9074707 57.859375 C-21.22441367 61.46334903 -22.21400456 63.21400456 -25 66 C-23.515 59.07 -23.515 59.07 -22 52 C-21.34 52 -20.68 52 -20 52 C-20.0928125 50.948125 -20.0928125 50.948125 -20.1875 49.875 C-19.95511263 46.31172705 -18.64168292 44.15708255 -17 41 C-16.54141087 39.39493805 -16.08547302 37.78894443 -15.65625 36.17578125 C-13.37454054 28.61082786 -10.196932 21.30416523 -6.90234375 14.1328125 C-5.63613889 11.13996465 -4.70885114 8.06545924 -3.80859375 4.9453125 C-2.89514439 2.74773868 -1.77234892 1.56123811 0 0 Z " fill="#01C7F3" transform="translate(360,218)"/>
<path d="M0 0 C1.37433317 0.00187017 2.74866702 0.00329123 4.1230011 0.00428772 C7.7018322 0.00806583 11.28062129 0.01785462 14.85943604 0.0289917 C18.52672762 0.03930829 22.19402614 0.04380707 25.86132812 0.04882812 C33.02866477 0.0594822 40.19596708 0.07650043 47.36328125 0.09765625 C47.85828125 1.58265625 47.85828125 1.58265625 48.36328125 3.09765625 C23.94328125 3.09765625 -0.47671875 3.09765625 -25.63671875 3.09765625 C-25.63671875 2.43765625 -25.63671875 1.77765625 -25.63671875 1.09765625 C-17.07492782 0.12312606 -8.61098886 -0.0342033 0 0 Z " fill="#003659" transform="translate(354.63671875,113.90234375)"/>
<path d="M0 0 C1.60488281 0.00676758 1.60488281 0.00676758 3.2421875 0.01367188 C5.86984986 0.02540251 8.49739538 0.04181772 11.125 0.0625 C11.15026945 6.7377034 11.16783268 13.41289457 11.17993164 20.08813477 C11.18497325 22.36092591 11.19180637 24.6337138 11.20043945 26.90649414 C11.21251261 30.16553551 11.21822987 33.42453417 11.22265625 36.68359375 C11.22781754 37.70650009 11.23297882 38.72940643 11.23829651 39.78330994 C11.23840981 41.19465965 11.23840981 41.19465965 11.23852539 42.63452148 C11.240746 43.46725082 11.24296661 44.29998016 11.24525452 45.15794373 C11.125 47.0625 11.125 47.0625 10.125 48.0625 C7.93860547 48.13508946 5.74999611 48.14623783 3.5625 48.125 C1.76619141 48.11146484 1.76619141 48.11146484 -0.06640625 48.09765625 C-0.99324219 48.08605469 -1.92007813 48.07445312 -2.875 48.0625 C-2.545 47.4025 -2.215 46.7425 -1.875 46.0625 C0.12109375 45.46484375 0.12109375 45.46484375 2.5625 45 C5.94974047 44.3480699 5.94974047 44.3480699 9.125 43.0625 C9.455 29.2025 9.785 15.3425 10.125 1.0625 C0.885 1.3925 -8.355 1.7225 -17.875 2.0625 C-17.875 1.7325 -17.875 1.4025 -17.875 1.0625 C-11.93872979 -0.24183619 -6.04167748 -0.04836318 0 0 Z " fill="#01B0D2" transform="translate(204.875,47.9375)"/>
<path d="M0 0 C-0.75023437 0.40089844 -1.50046875 0.80179688 -2.2734375 1.21484375 C-17.19735334 9.50381968 -28.7592903 21.44322768 -36 37 C-36.66 37 -37.32 37 -38 37 C-33.06001569 20.73130168 -20.04743341 8.4330391 -5.9296875 -0.27734375 C-3.56035284 -1.16464519 -2.34547178 -0.83766849 0 0 Z " fill="#04B9E8" transform="translate(149,62)"/>
<path d="M0 0 C0.66 0.33 1.32 0.66 2 1 C0.60718915 10.44325754 -2.96048084 19.15778862 -6.703125 27.890625 C-8.5708034 32.36855273 -10.22666293 36.92207444 -11.88671875 41.48046875 C-13 44 -13 44 -15 45 C-14.3282197 40.18557449 -13.04177707 36.30648587 -11.05078125 31.8984375 C-8.46415451 26.14824125 -6.31840423 20.63533634 -5.0625 14.4375 C-4.28681141 10.76221358 -3.03132551 8.17946602 -1 5 C-0.29329272 2.30745009 -0.29329272 2.30745009 0 0 Z " fill="#02B9ED" transform="translate(327,301)"/>
<path d="M0 0 C0.66 0 1.32 0 2 0 C1.03383366 2.50668962 0.0328384 4.93529859 -1.18359375 7.33203125 C-7.28292384 19.39768424 -8.39627162 32.67633916 -9 46 C-9.33 46 -9.66 46 -10 46 C-10.02907084 42.41668375 -10.04682263 38.83339792 -10.0625 35.25 C-10.07087891 34.23421875 -10.07925781 33.2184375 -10.08789062 32.171875 C-10.09111328 31.1921875 -10.09433594 30.2125 -10.09765625 29.203125 C-10.10289307 28.30239258 -10.10812988 27.40166016 -10.11352539 26.47363281 C-10.00669231 24.14582043 -9.65421352 22.22724007 -9 20 C-8.71382812 18.99066406 -8.42765625 17.98132813 -8.1328125 16.94140625 C-7.80023438 15.82636719 -7.46765625 14.71132812 -7.125 13.5625 C-6.79757813 12.45003906 -6.47015625 11.33757812 -6.1328125 10.19140625 C-5.04720603 7.13299077 -3.88430942 4.63901974 -2 2 C-1.34 2 -0.68 2 0 2 C0 1.34 0 0.68 0 0 Z " fill="#00C8FA" transform="translate(162,111)"/>
<path d="M0 0 C0.33 0 0.66 0 1 0 C2.21383067 12.48896885 -1.50438413 25.93445869 -9 36 C-10.23027758 32.30916726 -9.60206654 31.20111803 -8.25 27.625 C-7.73179687 26.22121094 -7.73179687 26.22121094 -7.203125 24.7890625 C-6 22 -6 22 -4.3984375 19.4453125 C-2.91933532 16.85894946 -2.56263732 15.19294323 -2.375 12.25 C-2.08540925 8.08540925 -2.08540925 8.08540925 -1 7 C-0.63239269 4.67182036 -0.29758419 2.3381615 0 0 Z " fill="#02B9F4" transform="translate(150,257)"/>
<path d="M0 0 C2.72869407 0.03287583 5.2966618 0.56397771 8 1 C4.91190305 2.76462683 3.76687864 3 0 3 C0 18.18 0 33.36 0 49 C-0.33 49 -0.66 49 -1 49 C-1.19329466 42.34343662 -1.3707738 35.68658815 -1.53710938 29.02929688 C-1.5956132 26.76324861 -1.65777655 24.49729182 -1.72363281 22.23144531 C-1.81750693 18.9799871 -1.89834039 15.72843014 -1.9765625 12.4765625 C-2.00875885 11.45881744 -2.0409552 10.44107239 -2.0741272 9.39248657 C-2.09429901 8.45166229 -2.11447083 7.51083801 -2.13525391 6.54150391 C-2.15746002 5.71099518 -2.17966614 4.88048645 -2.20254517 4.02481079 C-2 2 -2 2 0 0 Z " fill="#002566" transform="translate(55,292)"/>
<path d="M0 0 C0.68384766 0.00902344 1.36769531 0.01804688 2.07226562 0.02734375 C3.73583287 0.05061042 5.39921631 0.08646833 7.0625 0.125 C7.0625 0.455 7.0625 0.785 7.0625 1.125 C6.15886719 1.25777344 5.25523437 1.39054687 4.32421875 1.52734375 C2.55498047 1.79224609 2.55498047 1.79224609 0.75 2.0625 C-1.00763672 2.32353516 -1.00763672 2.32353516 -2.80078125 2.58984375 C-5.95391403 3.04593031 -5.95391403 3.04593031 -8.9375 4.125 C-10.030625 4.434375 -11.12375 4.74375 -12.25 5.0625 C-15.89039328 6.04948865 -15.89039328 6.04948865 -19.125 7.375 C-22.43072469 8.25652658 -23.08895062 7.75971356 -25.9375 6.125 C-24.25118008 5.49682296 -22.56337549 4.87263107 -20.875 4.25 C-19.93527344 3.90195312 -18.99554688 3.55390625 -18.02734375 3.1953125 C-11.79888747 1.03779414 -6.63353762 -0.11740775 0 0 Z " fill="#03C3F1" transform="translate(176.9375,51.875)"/>
<path d="M0 0 C2.39522836 2.14241952 3.53343669 3.86235478 4.53515625 6.90625 C4.78716797 7.65003906 5.03917969 8.39382812 5.29882812 9.16015625 C5.55083984 9.93230469 5.80285156 10.70445312 6.0625 11.5 C6.57035983 13.03253419 7.08194173 14.56384112 7.59765625 16.09375 C7.81945557 16.77115234 8.04125488 17.44855469 8.26977539 18.14648438 C9.03609101 20.28283602 9.03609101 20.28283602 11 23 C11.125 25.6875 11.125 25.6875 11 28 C9.06640625 27.32421875 9.06640625 27.32421875 7 26 C6.27734375 23.64453125 6.27734375 23.64453125 5.9375 20.8125 C5.22785772 16.03340466 4.23479242 12.28335215 2 8 C1.34 7.67 0.68 7.34 0 7 C0 4.69 0 2.38 0 0 Z " fill="#04BCE9" transform="translate(438,208)"/>
<path d="M0 0 C0.33 0 0.66 0 1 0 C2.30617903 10.30717511 2.64789705 17.77575291 -3 27 C-3.66 27 -4.32 27 -5 27 C-3.35 18.09 -1.7 9.18 0 0 Z " fill="#062E53" transform="translate(153,250)"/>
<path d="M0 0 C-1.37671875 0.52787109 -1.37671875 0.52787109 -2.78125 1.06640625 C-10.28347858 4.0480874 -16.33024029 7.0485131 -22 13 C-22.33 12.34 -22.66 11.68 -23 11 C-22.34 10.01 -21.68 9.02 -21 8 C-20.34 8 -19.68 8 -19 8 C-18.67 7.01 -18.34 6.02 -18 5 C-13.11361735 1.65104019 -5.77042315 -1.92347438 0 0 Z " fill="#00C8F3" transform="translate(187,98)"/>
<path d="M0 0 C0 0.66 0 1.32 0 2 C-3.99823802 3.90640153 -6.99092752 4.1852641 -11.39453125 3.9765625 C-13.19760742 3.89921875 -13.19760742 3.89921875 -15.03710938 3.8203125 C-16.28298828 3.75585938 -17.52886719 3.69140625 -18.8125 3.625 C-20.07771484 3.56828125 -21.34292969 3.5115625 -22.64648438 3.453125 C-25.76491646 3.31191298 -28.88251205 3.16052192 -32 3 C-32 2.67 -32 2.34 -32 2 C-31.33468262 1.97494385 -30.66936523 1.9498877 -29.98388672 1.92407227 C-26.94742513 1.80748864 -23.91122654 1.68504649 -20.875 1.5625 C-19.82828125 1.52318359 -18.7815625 1.48386719 -17.703125 1.44335938 C-11.78285475 1.19980395 -5.87481375 0 0 0 Z " fill="#0292D7" transform="translate(541,532)"/>
<path d="M0 0 C0.66 0.66 1.32 1.32 2 2 C1.76045889 4.95434037 1.10001678 6.83475489 -0.4375 9.375 C-2.16233527 12.01108854 -2.16233527 12.01108854 -2.9375 15.375 C-4.12978468 19.44279479 -5.79544991 22.39923485 -8 26 C-8.33 25.34 -8.66 24.68 -9 24 C-8.3984375 22.36328125 -8.3984375 22.36328125 -7.375 20.3125 C-4.30279378 13.75989232 -2.21117806 6.87821372 0 0 Z " fill="#052B4E" transform="translate(341,270)"/>
<path d="M0 0 C0.33 0 0.66 0 1 0 C1.59108633 8.01133083 2.14101233 15.96229722 2 24 C3.32 24.33 4.64 24.66 6 25 C6 25.33 6 25.66 6 26 C4.02 26 2.04 26 0 26 C0 17.42 0 8.84 0 0 Z " fill="#02C9F2" transform="translate(504,69)"/>
<path d="M0 0 C0.99 0.495 0.99 0.495 2 1 C3.35606392 8.96140752 3.26570311 16.26995408 1 24 C0.67 24 0.34 24 0 24 C0 16.08 0 8.16 0 0 Z " fill="#00ADDF" transform="translate(569,223)"/>
<path d="M0 0 C2.66666667 1.33333333 5.33333333 2.66666667 8 4 C7.7589852 10.14587738 7.7589852 10.14587738 5.59765625 12.578125 C4.11953029 13.78844931 2.56352047 14.90220903 1 16 C0.34 15.34 -0.32 14.68 -1 14 C-0.4946875 13.59007812 0.010625 13.18015625 0.53125 12.7578125 C1.50578125 11.94957031 1.50578125 11.94957031 2.5 11.125 C3.1496875 10.59132813 3.799375 10.05765625 4.46875 9.5078125 C5.22671875 8.76144531 5.22671875 8.76144531 6 8 C6 7.34 6 6.68 6 6 C4.02043058 4.30911778 2.02054804 2.64169528 0 1 C0 0.67 0 0.34 0 0 Z " fill="#07B4E8" transform="translate(596,310)"/>
<path d="M0 0 C0.66 0.33 1.32 0.66 2 1 C1.35083537 7.00477279 -0.85795003 12.400781 -3 18 C-3.33 18 -3.66 18 -4 18 C-3.61020794 11.44074057 -2.57886807 6.05473373 0 0 Z " fill="#00C3F0" transform="translate(333,284)"/>
<path d="M0 0 C0.33 0 0.66 0 1 0 C1.06058594 1.01320312 1.12117187 2.02640625 1.18359375 3.0703125 C1.26806704 4.42188514 1.35271157 5.77344709 1.4375 7.125 C1.47681641 7.79015625 1.51613281 8.4553125 1.55664062 9.140625 C1.75527454 12.25764956 2.04215219 15.18911525 2.72265625 18.2421875 C3 21 3 21 0 25 C0 16.75 0 8.5 0 0 Z " fill="#06132B" transform="translate(622,170)"/>
<path d="M0 0 C6.76100758 -0.26003875 13.43020944 0.29711029 20 2 C20.33 2.66 20.66 3.32 21 4 C19.08364783 4.05423638 17.16685075 4.09289963 15.25 4.125 C13.64898438 4.15980469 13.64898438 4.15980469 12.015625 4.1953125 C9.02424837 4.00157049 7.54527175 3.47357838 5 2 C3.34259285 1.62331656 1.67654729 1.27942455 0 1 C0 0.67 0 0.34 0 0 Z " fill="#073049" transform="translate(504,95)"/>
<path d="M0 0 C0.66 0.33 1.32 0.66 2 1 C0.84826645 3.46800047 -0.04783565 5.04783565 -2 7 C-2.99 7 -3.98 7 -5 7 C-5.33 8.65 -5.66 10.3 -6 12 C-6.99 12.33 -7.98 12.66 -9 13 C-7.47987323 7.59510481 -3.72614782 4.01507372 0 0 Z " fill="#0A2443" transform="translate(170,105)"/>
<path d="M0 0 C3.10119824 4.65179736 4.69301573 9.57098841 6 15 C5.67 15.99 5.34 16.98 5 18 C-0.73076085 6.11554393 -0.73076085 6.11554393 -1 1 C-0.67 0.67 -0.34 0.34 0 0 Z " fill="#02C7F8" transform="translate(380,239)"/>
<path d="M0 0 C6.02770138 0.47587116 10.76678289 3.19722957 16 6 C16 6.99 16 7.98 16 9 C10.72 6.36 5.44 3.72 0 1 C0 0.67 0 0.34 0 0 Z " fill="#04CDF6" transform="translate(566,58)"/>
<path d="M0 0 C0.66 0.99 1.32 1.98 2 3 C0.40580386 7.78258841 -1.64827345 11.18596634 -5 15 C-3.97137215 9.55432314 -2.75385216 4.88182883 0 0 Z " fill="#02ABE9" transform="translate(145,278)"/>
<path d="M0 0 C1.36420006 4.09260018 -0.2335485 6.47012659 -1.9375 10.1875 C-2.22818359 10.84169922 -2.51886719 11.49589844 -2.81835938 12.16992188 C-3.53695343 13.78381344 -4.2673588 15.39243655 -5 17 C-5.33 17 -5.66 17 -6 17 C-6.47827783 12.05779581 -5.03196449 7.46530469 -3 3 C-1.39453125 1.2265625 -1.39453125 1.2265625 0 0 Z " fill="#03CFF5" transform="translate(360,218)"/>
<path d="M0 0 C2.86469884 2.44607523 3.92891276 4.85481348 5.1875 8.375 C5.53167969 9.31085938 5.87585938 10.24671875 6.23046875 11.2109375 C6.98764758 13.95523031 7.14916724 16.17096621 7 19 C5.04629189 16.06943783 3.74381141 13.30041939 2.375 10.0625 C1.92898438 9.02222656 1.48296875 7.98195312 1.0234375 6.91015625 C0 4 0 4 0 0 Z " fill="#05C0E8" transform="translate(406,128)"/>
<path d="M0 0 C0.66 0 1.32 0 2 0 C0 5 -2 10 -4 15 C-4.33 15 -4.66 15 -5 15 C-5.44539877 6.2404908 -5.44539877 6.2404908 -2 2 C-1.34 2 -0.68 2 0 2 C0 1.34 0 0.68 0 0 Z " fill="#00BDDE" transform="translate(162,111)"/>
<path d="M0 0 C5.28 0 10.56 0 16 0 C16 0.66 16 1.32 16 2 C15.18015625 1.97679687 14.3603125 1.95359375 13.515625 1.9296875 C12.43796875 1.91164062 11.3603125 1.89359375 10.25 1.875 C9.18265625 1.85179687 8.1153125 1.82859375 7.015625 1.8046875 C4.07529894 1.99512313 2.47638122 2.47329896 0 4 C0 2.68 0 1.36 0 0 Z " fill="#00D1F6" transform="translate(504,49)"/>
<path d="M0 0 C2 3 2 3 2 5 C-5.26 5 -12.52 5 -20 5 C-20 4.67 -20 4.34 -20 4 C-10.1 3.505 -10.1 3.505 0 3 C0 2.01 0 1.02 0 0 Z " fill="#02ABEF" transform="translate(545,477)"/>
<path d="M0 0 C0.66 0.33 1.32 0.66 2 1 C0.50958227 4.79379058 -1.69062512 6.68343758 -5 9 C-5.66 9 -6.32 9 -7 9 C-5.44499019 5.18315774 -2.96404505 2.80804268 0 0 Z " fill="#0A2242" transform="translate(637,351)"/>
<path d="M0 0 C2 1 2 1 2.8515625 2.9609375 C3.10679687 3.75757813 3.36203125 4.55421875 3.625 5.375 C3.88539063 6.16648437 4.14578125 6.95796875 4.4140625 7.7734375 C5 10 5 10 5 13 C2.53686261 11.17251097 1.16571382 9.77023784 0.51171875 6.73046875 C0.27481707 4.48520654 0.09638651 2.25544422 0 0 Z " fill="#049BCD" transform="translate(498,358)"/>
<path d="M0 0 C0.99 0.33 1.98 0.66 3 1 C1.75627811 1.98712878 0.50472782 2.96439905 -0.75 3.9375 C-1.44609375 4.48277344 -2.1421875 5.02804687 -2.859375 5.58984375 C-4.96092128 6.97425654 -6.54321799 7.56286987 -9 8 C-8.67 7.01 -8.34 6.02 -8 5 C-4.9375 3.8125 -4.9375 3.8125 -2 3 C-2 2.34 -2 1.68 -2 1 C-1.34 0.67 -0.68 0.34 0 0 Z " fill="#081939" transform="translate(86,280)"/>
<path d="M0 0 C3.13138355 3.13138355 4.89746937 6.4278637 5.1875 10.875 C5.125625 11.57625 5.06375 12.2775 5 13 C3.046875 12.3515625 3.046875 12.3515625 1 11 C0.390625 8.3984375 0.390625 8.3984375 0.25 5.375 C0.19328125 4.37210938 0.1365625 3.36921875 0.078125 2.3359375 C0.05234375 1.56507813 0.0265625 0.79421875 0 0 Z " fill="#04C6F5" transform="translate(444,223)"/>
<path d="M0 0 C0.66 0 1.32 0 2 0 C2.67119549 1.4562545 3.33681807 2.91507867 4 4.375 C4.556875 5.59316406 4.556875 5.59316406 5.125 6.8359375 C6 9 6 9 6 11 C5.01 11 4.02 11 3 11 C2.690625 10.195625 2.38125 9.39125 2.0625 8.5625 C1.23664655 6.10919595 1.23664655 6.10919595 0 5 C-0.04063832 3.33382885 -0.042721 1.66611905 0 0 Z " fill="#07ABED" transform="translate(538,462)"/>
<path d="M0 0 C0 0.66 0 1.32 0 2 C-2.31 2.33 -4.62 2.66 -7 3 C-7 3.66 -7 4.32 -7 5 C-9.31 5.33 -11.62 5.66 -14 6 C-12.67613295 3.3522659 -11.36742791 3.0592562 -8.6875 1.875 C-7.90761719 1.52179688 -7.12773438 1.16859375 -6.32421875 0.8046875 C-4 0 -4 0 0 0 Z " fill="#073158" transform="translate(655,344)"/>
<path d="M0 0 C0.66 0 1.32 0 2 0 C2.36630156 3.93774177 2.30233203 5.56539771 0 8.875 C-0.66 9.57625 -1.32 10.2775 -2 11 C-1.85892253 9.54119891 -1.71197585 8.08296449 -1.5625 6.625 C-1.48128906 5.81289062 -1.40007812 5.00078125 -1.31640625 4.1640625 C-1 2 -1 2 0 0 Z " fill="#082846" transform="translate(359,223)"/>
<path d="M0 0 C0.90105469 0.00902344 1.80210937 0.01804688 2.73046875 0.02734375 C3.41753906 0.03894531 4.10460937 0.05054688 4.8125 0.0625 C1.92621599 1.63804035 -0.72092384 2.52526373 -3.9375 3.1875 C-5.13632813 3.43886719 -5.13632813 3.43886719 -6.359375 3.6953125 C-6.96265625 3.81648438 -7.5659375 3.93765625 -8.1875 4.0625 C-8.1875 3.0725 -8.1875 2.0825 -8.1875 1.0625 C-5.17259443 0.05753148 -3.14568308 -0.04085303 0 0 Z " fill="#061D3E" transform="translate(173.1875,49.9375)"/>
<path d="M0 0 C0 0.99 0 1.98 0 3 C-2.75078884 3.91692961 -4.35948913 4.10886083 -7.1875 4.0625 C-9.0746875 4.0315625 -9.0746875 4.0315625 -11 4 C-8.07317918 1.07317918 -4.14037627 0 0 0 Z " fill="#072951" transform="translate(568,574)"/>
<path d="M0 0 C2.9375 0.8125 2.9375 0.8125 6 2 C6.33 2.99 6.66 3.98 7 5 C9.01508358 5.73323796 9.01508358 5.73323796 11 6 C10.01 6.495 10.01 6.495 9 7 C6.6171875 6.00390625 6.6171875 6.00390625 3.875 4.5625 C2.96492187 4.08941406 2.05484375 3.61632812 1.1171875 3.12890625 C0.41851562 2.75636719 -0.28015625 2.38382813 -1 2 C-0.67 1.34 -0.34 0.68 0 0 Z " fill="#0287E2" transform="translate(141,566)"/>
<path d="M0 0 C0.66 0 1.32 0 2 0 C1.40895235 4.84659077 0.02055843 8.60748167 -2 13 C-3.18414294 9.44757118 -2.69535532 8.30169438 -1.5625 4.8125 C-1.27503906 3.91144531 -0.98757813 3.01039063 -0.69140625 2.08203125 C-0.46324219 1.39496094 -0.23507812 0.70789063 0 0 Z " fill="#04ABEB" transform="translate(268,455)"/>
<path d="M0 0 C-1.29023718 2.58047436 -2.27089391 2.67022964 -4.9375 3.625 C-6.00291016 4.01558594 -6.00291016 4.01558594 -7.08984375 4.4140625 C-9 5 -9 5 -11 5 C-11 4.34 -11 3.68 -11 3 C-7.14243493 0.84694043 -4.44870215 -0.39253254 0 0 Z " fill="#032340" transform="translate(160,54)"/>
<path d="M0 0 C0 0.66 0 1.32 0 2 C-0.99 2 -1.98 2 -3 2 C-3.33 2.99 -3.66 3.98 -4 5 C-9.75 6.125 -9.75 6.125 -12 5 C-10.37750059 4.16180842 -8.75191503 3.3295884 -7.125 2.5 C-6.22007812 2.0359375 -5.31515625 1.571875 -4.3828125 1.09375 C-2 0 -2 0 0 0 Z " fill="#072147" transform="translate(582,568)"/>
<path d="M0 0 C0.33 0.66 0.66 1.32 1 2 C1.66 2.33 2.32 2.66 3 3 C1.37660195 4.70884005 -0.29319053 6.37446717 -2 8 C-2.66 8 -3.32 8 -4 8 C-2.87548273 5.0280615 -1.77706209 2.66559313 0 0 Z " fill="#009BDA" transform="translate(565,512)"/>
<path d="M0 0 C0.66 0 1.32 0 2 0 C1.88610125 1.79240663 1.75852313 3.58394835 1.625 5.375 C1.52058594 6.87160156 1.52058594 6.87160156 1.4140625 8.3984375 C1 11 1 11 -1 13 C-1.33 11.68 -1.66 10.36 -2 9 C-1.34 9 -0.68 9 0 9 C-0.185625 7.88625 -0.37125 6.7725 -0.5625 5.625 C-1 2 -1 2 0 0 Z " fill="#0096C9" transform="translate(619,507)"/>
<path d="M0 0 C0.33 0.99 0.66 1.98 1 3 C0.34 3.66 -0.32 4.32 -1 5 C-1 6.32 -1 7.64 -1 9 C-2.32 8.34 -3.64 7.68 -5 7 C-5 6.01 -5 5.02 -5 4 C-2.5 1.8125 -2.5 1.8125 0 0 Z " fill="#082B56" transform="translate(124,312)"/>
<path d="M0 0 C0.66 0 1.32 0 2 0 C2.20140476 3.62528568 1.85776765 5.86501708 0 9 C-0.99 9 -1.98 9 -3 9 C-2.01 6.03 -1.02 3.06 0 0 Z " fill="#05AFE6" transform="translate(308,165)"/>
<path d="M0 0 C0.66 0 1.32 0 2 0 C0.50958227 3.79379058 -1.69062512 5.68343758 -5 8 C-5.66 8 -6.32 8 -7 8 C-6.67 7.01 -6.34 6.02 -6 5 C-5.360625 4.855625 -4.72125 4.71125 -4.0625 4.5625 C-1.79688294 4.19895007 -1.79688294 4.19895007 -0.75 1.9375 C-0.5025 1.298125 -0.255 0.65875 0 0 Z " fill="#052342" transform="translate(559,518)"/>
<path d="M0 0 C0.66 0 1.32 0 2 0 C1.44894091 3.9492568 0.61064629 7.34920174 -1 11 C-1.33 11 -1.66 11 -2 11 C-2.19622241 6.78121808 -1.80230168 3.82989106 0 0 Z " fill="#02AFED" transform="translate(276,435)"/>
<path d="M0 0 C1.18771723 3.42943519 0.80226223 5.37784675 -0.4375 8.75 C-0.86869141 9.94882812 -0.86869141 9.94882812 -1.30859375 11.171875 C-1.65083984 12.07679688 -1.65083984 12.07679688 -2 13 C-3.4500578 8.45580479 -2.32826388 5.50133869 -1 1 C-0.67 0.67 -0.34 0.34 0 0 Z " fill="#0C1A38" transform="translate(628,362)"/>
<path d="M0 0 C1.98 0.99 1.98 0.99 4 2 C4 3.65 4 5.3 4 7 C2.68 6.34 1.36 5.68 0 5 C0 3.35 0 1.7 0 0 Z " fill="#03BBF9" transform="translate(489,341)"/>
<path d="M0 0 C0.66 0 1.32 0 2 0 C1.67 2.31 1.34 4.62 1 7 C0.01 7.33 -0.98 7.66 -2 8 C-2.20086443 4.28400809 -2.1519437 3.22791555 0 0 Z " fill="#00BDE9" transform="translate(342,262)"/>
<path d="M0 0 C0.66 0 1.32 0 2 0 C4.09230769 4.43076923 4.09230769 4.43076923 3.625 7.3125 C3.41875 7.869375 3.2125 8.42625 3 9 C1.5 7.875 1.5 7.875 0 6 C-0.1875 2.8125 -0.1875 2.8125 0 0 Z " fill="#05C8F1" transform="translate(414,149)"/>
<path d="M0 0 C1.39864092 3.17872935 0.89282517 4.30111022 -0.3125 7.6875 C-2 11 -2 11 -4 12 C-3.52309796 10.37433394 -3.04340334 8.74948689 -2.5625 7.125 C-2.29566406 6.22007812 -2.02882813 5.31515625 -1.75390625 4.3828125 C-1 2 -1 2 0 0 Z " fill="#063160" transform="translate(285,419)"/>
<path d="M0 0 C0.99 0.33 1.98 0.66 3 1 C0.03 4.96 0.03 4.96 -3 9 C-3.33 7.68 -3.66 6.36 -4 5 C-2.0625 2.25 -2.0625 2.25 0 0 Z " fill="#06223D" transform="translate(589,328)"/>
<path d="M0 0 C0 0.66 0 1.32 0 2 C-3.78187881 3.83691257 -5.94568308 4.15837626 -10 3 C-6.59538535 1.23899242 -3.90650339 0 0 0 Z " fill="#0795E5" transform="translate(69,292)"/>
<path d="M0 0 C2.64 0.33 5.28 0.66 8 1 C4.73454239 2.88391785 1.71888239 3.49287967 -2 4 C-1.34 2.68 -0.68 1.36 0 0 Z " fill="#031F40" transform="translate(55,292)"/>
<path d="M0 0 C2.95183101 2.95183101 3.08663988 5.95511947 4 10 C2.68 9.34 1.36 8.68 0 8 C0 5.36 0 2.72 0 0 Z " fill="#019ECE" transform="translate(461,263)"/>
<path d="M0 0 C0.66 0 1.32 0 2 0 C2.33 1.32 2.66 2.64 3 4 C2.34 4 1.68 4 1 4 C0.34 5.32 -0.32 6.64 -1 8 C-1.66 8 -2.32 8 -3 8 C-1.125 1.125 -1.125 1.125 0 0 Z " fill="#093056" transform="translate(365,210)"/>
<path d="M0 0 C-3.83325617 2.70582788 -6.32538149 3.32613618 -11 3 C-10 1 -10 1 -7.1875 -0.1875 C-4.14038924 -0.96421451 -2.86250637 -1.10096399 0 0 Z " fill="#05395C" transform="translate(189,99)"/>
<path d="M0 0 C1.32 0.33 2.64 0.66 4 1 C4.33 2.65 4.66 4.3 5 6 C4.01 6 3.02 6 2 6 C0 3 0 3 0 0 Z " fill="#0599F7" transform="translate(118,545)"/>
<path d="M0 0 C0.66 0 1.32 0 2 0 C2.33 2.64 2.66 5.28 3 8 C2.01 7.67 1.02 7.34 0 7 C0 4.69 0 2.38 0 0 Z " fill="#03C2EF" transform="translate(430,188)"/>
<path d="M0 0 C-8.57142857 0.28571429 -8.57142857 0.28571429 -12 -2 C-6.84854146 -3.28786464 -4.42296703 -2.94864468 0 0 Z " fill="#053152" transform="translate(532,50)"/>
<path d="M0 0 C0.66 0 1.32 0 2 0 C2.33 2.31 2.66 4.62 3 7 C2.01 6.67 1.02 6.34 0 6 C0 4.02 0 2.04 0 0 Z " fill="#02B8FA" transform="translate(542,473)"/>
<path d="M0 0 C0.33 1.32 0.66 2.64 1 4 C-0.65 5.32 -2.3 6.64 -4 8 C-4.66 7.67 -5.32 7.34 -6 7 C-4.02 4.69 -2.04 2.38 0 0 Z " fill="#03ADE2" transform="translate(594,325)"/>
<path d="M0 0 C1.98 0.99 1.98 0.99 4 2 C2.25 5.875 2.25 5.875 0 7 C0 4.69 0 2.38 0 0 Z " fill="#023456" transform="translate(599,314)"/>
<path d="M0 0 C2 3 2 3 1.75 5.0625 C1 7 1 7 -1 9 C-1.09765625 2.84765625 -1.09765625 2.84765625 -1 1 C-0.67 0.67 -0.34 0.34 0 0 Z " fill="#01BDE6" transform="translate(349,242)"/>
<path d="M0 0 C0.99 0.33 1.98 0.66 3 1 C3.33 3.31 3.66 5.62 4 8 C3.01 8.495 3.01 8.495 2 9 C1.34 6.03 0.68 3.06 0 0 Z " fill="#02C5F6" transform="translate(375,229)"/>
<path d="M0 0 C0.99 0.33 1.98 0.66 3 1 C-1.455 3.97 -1.455 3.97 -6 7 C-4.14418503 3.28837006 -3.44285416 1.98224936 0 0 Z " fill="#08C5EE" transform="translate(137,66)"/>
<path d="M0 0 C0.33 0 0.66 0 1 0 C1.25 5.625 1.25 5.625 -1 9 C-1.66 9 -2.32 9 -3 9 C-2.01 6.03 -1.02 3.06 0 0 Z " fill="#068FE8" transform="translate(189,466)"/>
<path d="M0 0 C3.6 5.4 3.6 5.4 5 8 C4.67 8.66 4.34 9.32 4 10 C1 8 1 8 0.48828125 6.0546875 C0.32552083 4.03645833 0.16276042 2.01822917 0 0 Z " fill="#03263F" transform="translate(577,284)"/>
<path d="M0 0 C0.66 0 1.32 0 2 0 C1.46930939 3.82097239 0.50298434 6.06171403 -2 9 C-2.20140476 5.37471432 -1.85776765 3.13498292 0 0 Z " fill="#07192F" transform="translate(311,153)"/>
<path d="M0 0 C2.92879371 0.62759865 5.36095629 1.58622659 8 3 C7.34 3.66 6.68 4.32 6 5 C4.02 4.01 2.04 3.02 0 2 C0 1.34 0 0.68 0 0 Z " fill="#01B6E1" transform="translate(544,101)"/>
</svg>
