<svg xmlns="http://www.w3.org/2000/svg" viewBox="0 0 100 100">
<defs>
<!-- Define the blue linear gradient to match the original logo's look -->
<linearGradient id="blueGradient" x1="0%" y1="0%" x2="100%" y2="100%">
<stop offset="0%" style="stop-color:#0077B6;stop-opacity:1" />
<stop offset="100%" style="stop-color:#00B4D8;stop-opacity:1" />
</linearGradient>

<!-- Filter for a subtle drop shadow to mimic the depth -->
<filter id="shadow" x="-50%" y="-50%" width="200%" height="200%">
  <feDropShadow dx="1" dy="1" stdDeviation="2" flood-color="#000" flood-opacity="0.5"/>
</filter>


</defs>

<!-- Group for the logo elements, applying the shadow filter -->

<g fill="url(#blueGradient)" filter="url(#shadow)">

<!-- Left Curly Brace { -->
<path d="M22 10 C18 10 16 12 16 16 C16 20 20 25 24 30 L28 35 C30 38 30 42 28 45 L24 50 C20 55 16 60 16 65 C16 68 18 70 22 70 L26 70 C30 70 32 68 32 65 C32 62 28 58 24 53 L20 48 C18 46 18 44 20 42 L24 37 C28 32 32 27 32 24 C32 21 30 19 26 19 L22 19 Z M22 80 C18 80 16 82 16 86 C16 90 20 95 24 100 L28 105 C30 108 30 112 28 115 L24 120 C20 125 16 130 16 134 C16 137 18 139 22 139 L26 139 C30 139 32 137 32 134 C32 131 28 127 24 122 L20 117 C18 115 18 113 20 111 L24 106 C28 101 32 96 32 93 C32 90 30 88 26 88 L22 88 Z" transform="scale(0.7) translate(10, 10)" />

<!-- Right Curly Brace } -->
<path d="M78 10 C82 10 84 12 84 16 C84 20 80 25 76 30 L72 35 C70 38 70 42 72 45 L76 50 C80 55 84 60 84 65 C84 68 82 70 78 70 L74 70 C70 70 68 68 68 65 C68 62 72 58 76 53 L80 48 C82 46 82 44 80 42 L76 37 C72 32 68 27 68 24 C68 21 70 19 74 19 L78 19 Z M78 80 C82 80 84 82 84 86 C84 90 80 95 76 100 L72 105 C70 108 70 112 72 115 L76 120 C80 125 84 130 84 134 C84 137 82 139 78 139 L74 139 C70 139 68 137 68 134 C68 131 72 127 76 122 L80 117 C82 115 82 113 80 111 L76 106 C72 101 68 96 68 93 C68 90 70 88 74 88 L78 88 Z" transform="scale(0.7) translate(-10, 10)" />

<!-- Stylized Letter A -->
<path d="M50 20 L32 75 L39 75 L43.5 61 L56.5 61 L61 75 L68 75 L50 20 Z M46 54 L54 54 L50 41 L46 54 Z" />


</g>
</svg>